# xmcd
#
# Track frame offsets:
#	150
#	17770
#	34417
#	46935
#	65255
#	81682
#	95755
#	110010
#	126135
#	139797
#
# Disc length: 2046 seconds
# Revision: 2
# Processed by: cddbd v1.5.2PL0 Copyright (c) Steve Scherf et al.
# Submitted via: dBpowerAMP V12.0
#
DISCID=8f07fc0a
DTITLE=T. Thomas Booker - New Traditional Country
DYEAR=2012
DGENRE=Country
TTITLE0=Together We Can Change It
TTITLE1=Better Off With Her Memory
TTITLE2=Country's In My Soul
TTITLE3=Many Tear's Ago
TTITLE4=Hometown Lights
TTITLE5=You Are Everything In My Life
TTITLE6=Echo In My Heart
TTITLE7=I'm Still Here
TTITLE8=The Love I Have For You
TTITLE9=Let The Juke Box Do The Talking
EXTD=
EXTT0=
EXTT1=
EXTT2=
EXTT3=
EXTT4=
EXTT5=
EXTT6=
EXTT7=
EXTT8=
EXTT9=
PLAYORDER=
